<svg width="30" height="30" viewBox="0 0 30 30" fill="none" xmlns="http://www.w3.org/2000/svg">
	  <path fill-rule="evenodd" clip-rule="evenodd" d="M15 30C23.2843 30 30 23.2843 30 15C30 6.71573 23.2843 0 15 0C6.71573 0 0 6.71573 0 15C0 23.2843 6.71573 30 15 30ZM7 11.2344C7 8.89953 8.89953 7 11.2344 7H18.7656C21.1005 7 23 8.89953 23 11.2344V18.7656C23 21.1005 21.1005 23 18.7656 23H11.2344C8.89953 23 7 21.1005 7 18.7656V11.2344ZM11.0168 15C11.0168 17.1964 12.8037 18.9832 15.0001 18.9832C17.1965 18.9832 18.9835 17.1964 18.9835 15C18.9835 12.8036 17.1965 11.0168 15.0001 11.0168C12.8037 11.0168 11.0168 12.8036 11.0168 15ZM19.4562 11.0126C19.5797 11.0126 19.7006 10.9626 19.7878 10.8754C19.875 10.7879 19.925 10.6673 19.925 10.5439C19.925 10.4204 19.875 10.2998 19.7878 10.2123C19.7006 10.1251 19.5797 10.0751 19.4562 10.0751C19.3328 10.0751 19.2122 10.1251 19.1247 10.2123C19.0375 10.2998 18.9878 10.4204 18.9878 10.5439C18.9878 10.667 19.0375 10.7879 19.1247 10.8754C19.2122 10.9626 19.3332 11.0126 19.4562 11.0126ZM11.9543 15C11.9543 13.3206 13.3207 11.9543 15.0001 11.9543C16.6796 11.9543 18.046 13.3206 18.046 15C18.046 16.6794 16.6796 18.0457 15.0001 18.0457C13.3207 18.0457 11.9543 16.6794 11.9543 15Z" fill="white"></path>
	</svg>