<svg width="30" height="30" viewBox="0 0 30 30" fill="none" xmlns="http://www.w3.org/2000/svg">
	  <path fill-rule="evenodd" clip-rule="evenodd" d="M14.531 0.455078C17.2375 0.485962 19.6825 1.15112 21.866 2.45057C24.0236 3.72406 25.8183 5.52978 27.0786 7.69503C28.3702 9.89175 29.0313 12.3516 29.0621 15.0745C28.9854 18.8001 27.8103 21.9821 25.5368 24.6206C23.2634 27.2591 20.3516 28.8914 17.3373 29.5171V19.0717H20.1871L20.8315 14.9668H16.5164V12.2783C16.4924 11.7209 16.6687 11.1734 17.0133 10.7347C17.3584 10.2948 17.9661 10.0636 18.8364 10.0411H21.4421V6.44534C21.4048 6.43331 21.05 6.38574 20.3778 6.30263C19.6155 6.21344 18.8489 6.1658 18.0815 6.15993C16.3444 6.16794 14.9707 6.65792 13.9602 7.62988C12.9497 8.60157 12.4335 10.0074 12.4116 11.8473V14.9668H9.12772V19.0717H12.4116V29.5171C8.7105 28.8914 5.79871 27.2591 3.52523 24.6206C1.25175 21.9821 0.0767132 18.8001 0 15.0745C0.0306923 12.3514 0.691834 9.89163 1.98342 7.69503C3.24377 5.52978 5.03852 3.72407 7.19606 2.45057C9.37956 1.15137 11.8245 0.486212 14.531 0.455078Z" fill="currentColor"></path>
	</svg>