<svg width="16" height="16" viewBox="0 0 16 16" fill="none" xmlns="http://www.w3.org/2000/svg">
                        <path d="M13.6357 2.32349C12.1312 0.82605 10.1297 0.000854494 7.99963 0C5.8743 0 3.86969 0.824463 2.35529 2.32153C0.838208 3.82117 0.001955 5.81409 0 7.9259V7.92981C0.000244376 9.20801 0.336383 10.4974 0.974447 11.6744L0.0218716 16L4.40145 15.0048C5.51067 15.5632 6.74831 15.8577 7.99658 15.8582H7.99976C10.1247 15.8582 12.1293 15.0336 13.644 13.5364C15.1624 12.0355 15.999 10.0452 16 7.93201C16.0006 5.83374 15.1611 3.84192 13.6357 2.32349ZM7.99963 14.6094H7.99682C6.87599 14.6089 5.76543 14.3278 4.78536 13.7961L4.57825 13.6838L1.66603 14.3456L2.2986 11.4735L2.17665 11.2634C1.57036 10.2189 1.24998 9.0658 1.24998 7.92847C1.2523 4.24719 4.27987 1.24878 7.99939 1.24878C9.79628 1.24951 11.4847 1.94543 12.7535 3.20813C14.0415 4.49036 14.7505 6.16785 14.7499 7.93164C14.7484 11.6138 11.7203 14.6094 7.99963 14.6094Z" fill="black"> </path>
                        <path d="M5.82286 4.43323H5.47218C5.35011 4.43323 5.15193 4.47888 4.98428 4.66113C4.81652 4.84351 4.34378 5.2843 4.34378 6.18079C4.34378 7.07727 4.99956 7.94348 5.09095 8.06519C5.18247 8.18677 6.35682 10.0852 8.21676 10.8156C9.76256 11.4225 10.0772 11.3018 10.4126 11.2714C10.7481 11.2411 11.4953 10.8307 11.6478 10.4053C11.8003 9.97986 11.8003 9.61511 11.7546 9.53894C11.7088 9.46301 11.5867 9.41748 11.4038 9.32642C11.2207 9.23523 10.3239 8.78699 10.1561 8.72607C9.98836 8.66541 9.86642 8.63501 9.74435 8.8175C9.62229 8.99963 9.26293 9.42102 9.15614 9.5426C9.04947 9.66431 8.94268 9.67957 8.75964 9.58838C8.5766 9.49695 7.99328 9.30115 7.29424 8.68054C6.75014 8.19751 6.37258 7.58154 6.26579 7.39917C6.15912 7.21692 6.25443 7.11829 6.34619 7.02734C6.42842 6.9458 6.53949 6.83423 6.63101 6.72791C6.7224 6.62146 6.74843 6.54553 6.80952 6.42395C6.8705 6.30237 6.83995 6.19592 6.79425 6.10486C6.74843 6.01367 6.39726 5.11267 6.23451 4.75232C6.09741 4.44885 5.95323 4.4386 5.82286 4.43323Z" fill="black"></path>
                    </svg>