<svg width="31" height="31" viewBox="0 0 31 31" fill="none" xmlns="http://www.w3.org/2000/svg">
	  <path d="M15.5197 30.0238C23.8125 30.0238 30.5316 23.3047 30.5316 15.0119C30.5316 6.71908 23.8125 0 15.5197 0C7.22689 0 0.507812 6.71908 0.507812 15.0119C0.507812 23.3047 7.22689 30.0238 15.5197 30.0238ZM7.37701 14.6866L21.851 9.10597C22.5228 8.86328 23.1095 9.26985 22.8918 10.2857L22.8931 10.2844L20.4286 21.8949C20.246 22.718 19.7568 22.9182 19.0725 22.5304L15.3196 19.7644L13.5094 21.5083C13.3092 21.7085 13.1403 21.8774 12.7525 21.8774L13.019 18.0581L19.9745 11.7743C20.2772 11.5079 19.9069 11.3578 19.5079 11.623L10.9123 17.0348L7.20688 15.8788C6.40249 15.6236 6.38497 15.0745 7.37701 14.6866Z" fill="white"></path>
	</svg>