<svg width="31" height="31" viewBox="0 0 31 31" fill="none" xmlns="http://www.w3.org/2000/svg">
	  <path d="M13.9066 17.4336L18.0704 15.0178L13.9066 12.5902V17.4336Z" fill="white"></path><path d="M15.9885 0C13.0194 0 10.117 0.880433 7.64831 2.52996C5.17961 4.17949 3.2555 6.52403 2.11928 9.2671C0.983067 12.0102 0.685781 15.0286 1.26502 17.9406C1.84426 20.8526 3.274 23.5275 5.37346 25.6269C7.47291 27.7264 10.1478 29.1561 13.0598 29.7354C15.9718 30.3146 18.9902 30.0173 21.7333 28.8811C24.4764 27.7449 26.8209 25.8208 28.4704 23.3521C30.12 20.8834 31.0004 17.981 31.0004 15.0119C31.0004 11.0305 29.4188 7.21216 26.6035 4.39689C23.7882 1.58161 19.9699 0 15.9885 0ZM23.8895 17.6686C23.8897 18.0612 23.8126 18.4501 23.6626 18.8129C23.5125 19.1757 23.2924 19.5054 23.0149 19.7831C22.7373 20.0608 22.4078 20.2812 22.0451 20.4315C21.6823 20.5818 21.2936 20.6591 20.9009 20.6591H11.076C10.6834 20.6591 10.2946 20.5818 9.9319 20.4315C9.56919 20.2812 9.23964 20.0608 8.9621 19.7831C8.68457 19.5054 8.46447 19.1757 8.3144 18.8129C8.16433 18.4501 8.08722 18.0612 8.08748 17.6686V12.3552C8.08722 11.9626 8.16433 11.5737 8.3144 11.2109C8.46447 10.8481 8.68457 10.5184 8.9621 10.2407C9.23964 9.96297 9.56919 9.74266 9.9319 9.59234C10.2946 9.44203 10.6834 9.36466 11.076 9.36466H20.9009C21.2936 9.36466 21.6823 9.44203 22.0451 9.59234C22.4078 9.74266 22.7373 9.96297 23.0149 10.2407C23.2924 10.5184 23.5125 10.8481 23.6626 11.2109C23.8126 11.5737 23.8897 11.9626 23.8895 12.3552V17.6686Z" fill="white"></path>
	</svg>